# xmcd
#
# Track frame offsets: 
#        150
#        13435
#        25136
#        37212
#        48902
#        63138
#        78082
#        90175
#        103927
#        116303
#        130610
#        144287
#        157718
#        170229
#        183497
#        197670
#        208455
#        221146
#
# Disc length: 3140 seconds
#
# Revision: 1
# Processed by: cddbd v1.5.2PL0 Copyright (c) Steve Scherf et al.
# Submitted via: ExactAudioCopy v0.95b2
#
DISCID=f60c4212
DTITLE=Roosevelt Sykes - The Essential Roosevelt Sykes Disc 2
DYEAR=2001
DGENRE=Blues
TTITLE0=3-6 And 9
TTITLE1=Doing The Salty Long
TTITLE2=Trouble And Whiskey
TTITLE3=She Showed It All
TTITLE4=Ten And Four Blues
TTITLE5=Sugar Hill Blues
TTITLE6=We Can Sell That Thing
TTITLE7=He Treats Me Like A Dog
TTITLE8=Kelly's Special
TTITLE9=Highway 61 Blues
TTITLE10=Have You Seen Ida B
TTITLE11=Knock Me Out
TTITLE12=Pap Low
TTITLE13=Strange Man Blues
TTITLE14=47th Street Live
TTITLE15=My Baby's Playground
TTITLE16=Barrel House Man
TTITLE17=(Mystery Track)
EXTD=hale
EXTT0=
EXTT1=
EXTT2=
EXTT3=
EXTT4=
EXTT5=
EXTT6=
EXTT7=
EXTT8=
EXTT9=
EXTT10=
EXTT11=
EXTT12=
EXTT13=
EXTT14=
EXTT15=
EXTT16=
EXTT17=
PLAYORDER=
